<?xml version="1.0" encoding="utf-8"?>
<svg viewBox="0 0 400 400" xmlns="http://www.w3.org/2000/svg" xmlns:bx="https://boxy-svg.com">
  <path style="stroke-width: 5px; stroke-linecap: round; stroke-miterlimit: 1; stroke-linejoin: round; fill: none; stroke: rgb(31, 38, 63);" d="M 119.706 129.66 C 119.706 129.66 231.729 129.934 189.432 165.525 C 160.137 190.177 118.677 191.721 119.759 202.997 C 121.521 221.341 120.976 254.012 173.512 235.34 C 199.795 225.999 154.274 239.654 153.11 269.695 C 152.109 295.566 204.098 318.222 204.098 318.222"/>
  <rect x="6.92" y="125.863" width="2.025" height="168.437" style="stroke: rgb(31, 38, 63); stroke-linecap: round; stroke-linejoin: round; fill: none; stroke-width: 6px;" transform="matrix(0.99016, -0.139942, -0.000907, 1.010066, 109.559555, 4.813151)"/>
  <path style="fill: rgb(216, 216, 216);" d="M 249.819 603.306 L 264.181 603.306 L 267.211 625.241 A 38.151 38.151 0 0 1 275.772 628.787 L 293.425 615.419 L 303.581 625.575 L 290.213 643.228 A 38.151 38.151 0 0 1 293.759 651.789 L 315.694 654.819 L 315.694 669.181 L 293.759 672.211 A 38.151 38.151 0 0 1 290.213 680.772 L 303.581 698.425 L 293.425 708.581 L 275.772 695.213 A 38.151 38.151 0 0 1 267.211 698.759 L 264.181 720.694 L 249.819 720.694 L 246.789 698.759 A 38.151 38.151 0 0 1 238.228 695.213 L 220.575 708.581 L 210.419 698.425 L 223.787 680.772 A 38.151 38.151 0 0 1 220.241 672.211 L 198.306 669.181 L 198.306 654.819 L 220.241 651.789 A 38.151 38.151 0 0 1 223.787 643.228 L 210.419 625.575 L 220.575 615.419 L 238.228 628.787 A 38.151 38.151 0 0 1 246.789 625.241 Z M 257 644.392 A 17.608 17.608 0 0 0 257 679.608 A 17.608 17.608 0 0 0 257 644.392" bx:shape="cog 257 662 17.608 38.151 58.694 0.38 8 1@6323a245"/>
  <path style="fill: rgb(216, 216, 216);" d="M 255.611 649.955 L 266.389 649.955 L 268.663 666.415 A 28.63 28.63 0 0 1 275.087 669.076 L 288.335 659.045 L 295.955 666.665 L 285.924 679.913 A 28.63 28.63 0 0 1 288.585 686.337 L 305.045 688.611 L 305.045 699.389 L 288.585 701.663 A 28.63 28.63 0 0 1 285.924 708.087 L 295.955 721.335 L 288.335 728.955 L 275.087 718.924 A 28.63 28.63 0 0 1 268.663 721.585 L 266.389 738.045 L 255.611 738.045 L 253.337 721.585 A 28.63 28.63 0 0 1 246.913 718.924 L 233.665 728.955 L 226.045 721.335 L 236.076 708.087 A 28.63 28.63 0 0 1 233.415 701.663 L 216.955 699.389 L 216.955 688.611 L 233.415 686.337 A 28.63 28.63 0 0 1 236.076 679.913 L 226.045 666.665 L 233.665 659.045 L 246.913 669.076 A 28.63 28.63 0 0 1 253.337 666.415 Z M 261 680.786 A 13.214 13.214 0 0 0 261 707.214 A 13.214 13.214 0 0 0 261 680.786" bx:shape="cog 261 694 13.214 28.63 44.045 0.38 8 1@a35b88e4"/>
  <path style="stroke: rgb(27, 29, 21); fill: rgb(44, 34, 34);" d="M 268.249 614.989 L 279.751 614.989 L 282.179 632.558 A 30.557 30.557 0 0 1 289.035 635.398 L 303.175 624.692 L 311.308 632.825 L 300.602 646.965 A 30.557 30.557 0 0 1 303.442 653.821 L 321.011 656.249 L 321.011 667.751 L 303.442 670.179 A 30.557 30.557 0 0 1 300.602 677.035 L 311.308 691.175 L 303.175 699.308 L 289.035 688.602 A 30.557 30.557 0 0 1 282.179 691.442 L 279.751 709.011 L 268.249 709.011 L 265.821 691.442 A 30.557 30.557 0 0 1 258.965 688.602 L 244.825 699.308 L 236.692 691.175 L 247.398 677.035 A 30.557 30.557 0 0 1 244.558 670.179 L 226.989 667.751 L 226.989 656.249 L 244.558 653.821 A 30.557 30.557 0 0 1 247.398 646.965 L 236.692 632.825 L 244.825 624.692 L 258.965 635.398 A 30.557 30.557 0 0 1 265.821 632.558 Z M 274 647.897 A 14.103 14.103 0 0 0 274 676.103 A 14.103 14.103 0 0 0 274 647.897" bx:shape="cog 274 662 14.103 30.557 47.011 0.38 8 1@ce055576"/>
</svg>